<svg width="49" height="50" viewBox="0 0 49 50" fill="none" xmlns="http://www.w3.org/2000/svg">
<g clip-path="url(#clip0_105_1421)">
<path d="M0 25C0 11.193 10.9691 0 24.5 0C38.0309 0 49 11.193 49 25L24.5 27.1739L0 25Z" fill="#FFDA44"/>
<path d="M3.27832 37.5C7.51462 44.9722 15.4316 50 24.4999 50C33.5683 50 41.4852 44.9722 45.7215 37.5L24.4999 35.8695L3.27832 37.5Z" fill="#D80027"/>
<path d="M45.7216 37.5C47.8062 33.8229 49 29.5538 49 25H0C0 29.5538 1.1938 33.8229 3.27841 37.5H45.7216Z" fill="#0052B4"/>
<path d="M24.5002 33.6957C29.2066 33.6957 33.0219 29.8025 33.0219 25C33.0219 20.1976 29.2066 16.3044 24.5002 16.3044C19.7938 16.3044 15.9785 20.1976 15.9785 25C15.9785 29.8025 19.7938 33.6957 24.5002 33.6957Z" fill="#FFDA44"/>
<path d="M24.4999 30.4348C21.5631 30.4348 19.1738 27.9967 19.1738 25V21.7392C19.1738 18.7424 21.5632 16.3044 24.4999 16.3044C27.4366 16.3044 29.826 18.7425 29.826 21.7392V25C29.826 27.9968 27.4367 30.4348 24.4999 30.4348Z" fill="#338AF3"/>
<path d="M33.0216 11.9565H26.6303C26.6303 10.7559 25.6764 9.78259 24.4998 9.78259C23.3232 9.78259 22.3694 10.7559 22.3694 11.9565H15.978C15.978 13.1572 17.0029 14.1304 18.1794 14.1304H18.1085C18.1085 15.3311 19.0623 16.3044 20.2389 16.3044C20.2389 17.5051 21.1927 18.4783 22.3694 18.4783H26.6303C27.8069 18.4783 28.7607 17.5051 28.7607 16.3044C29.9374 16.3044 30.8912 15.3311 30.8912 14.1304H30.8202C31.9968 14.1304 33.0216 13.1571 33.0216 11.9565Z" fill="black"/>
</g>
<defs>
<clipPath id="clip0_105_1421">
<rect width="49" height="50" fill="white"/>
</clipPath>
</defs>
</svg>
